<svg width="22" height="22" viewBox="0 0 22 22" fill="none" xmlns="http://www.w3.org/2000/svg">
<path d="M9.90452 17.0012L9.90454 17.0012L18.0658 8.8399C18.4406 8.46514 18.4406 7.85749 18.0658 7.48273L17.0622 6.47913C17.0622 6.47912 17.0622 6.47912 17.0622 6.47911C16.6874 6.10429 16.0798 6.10432 15.705 6.47911L9.22593 12.9581L6.29525 10.0275C5.92048 9.65269 5.31284 9.65271 4.93805 10.0274L4.93804 10.0275L3.93442 11.0311C3.55966 11.4058 3.55966 12.0135 3.93442 12.3882L8.54732 17.0011C8.92212 17.3759 9.52972 17.3759 9.90452 17.0012ZM21.7501 11C21.7501 13.7561 21.7498 15.802 21.5798 17.3318C21.4096 18.8634 21.0739 19.8227 20.4483 20.4482C19.8228 21.0738 18.8635 21.4095 17.3319 21.5797C15.8021 21.7496 13.7562 21.75 11.0001 21.75C8.24401 21.75 6.19812 21.7496 4.66834 21.5797C3.13671 21.4095 2.1774 21.0738 1.55185 20.4482C0.926302 19.8227 0.590591 18.8634 0.420417 17.3318C0.250448 15.802 0.250092 13.7561 0.250123 11C0.250153 8.24389 0.250539 6.19801 0.42052 4.66823C0.590706 3.13661 0.92641 2.17732 1.55195 1.55178C2.17748 0.926233 3.13677 0.590526 4.66837 0.420346C6.19814 0.250371 8.24401 0.25 11.0001 0.25C13.7562 0.25 15.8021 0.250371 17.3319 0.420346C18.8635 0.590526 19.8228 0.926233 20.4483 1.55178C21.0739 2.17732 21.4096 3.13661 21.5798 4.66823C21.7498 6.19801 21.7501 8.24389 21.7501 11Z" fill="#5CB35B"/>
</svg>
