<svg width="17" height="20" viewBox="0 0 17 20" fill="none" xmlns="http://www.w3.org/2000/svg">
<path d="M2.26826 17.7515C2.29327 18.1519 2.4695 18.5275 2.7609 18.802C3.05226 19.0764 3.43686 19.2291 3.83638 19.2292L2.26826 17.7515ZM2.26826 17.7515L1.48037 5.1198H15.5196L14.7317 17.7515C14.7317 17.7516 14.7317 17.7516 14.7317 17.7516C14.7067 18.1519 14.5305 18.5275 14.2391 18.802C13.9477 19.0764 13.5631 19.2291 13.1636 19.2292C13.1636 19.2292 13.1636 19.2292 13.1636 19.2292H3.83642L2.26826 17.7515ZM11.6158 1.3295L11.685 1.46745H11.8393H16.3929C16.4874 1.46745 16.5781 1.50509 16.6452 1.57229C16.7122 1.63952 16.75 1.73083 16.75 1.82618V3.04363C16.75 3.13897 16.7122 3.23029 16.6452 3.29751C16.5781 3.36471 16.4874 3.40235 16.3929 3.40235H0.607143C0.512633 3.40235 0.421862 3.36471 0.354834 3.29751C0.287785 3.23029 0.25 3.13897 0.25 3.04363V1.82618C0.25 1.73083 0.287785 1.63952 0.354834 1.57229C0.421862 1.50509 0.512633 1.46745 0.607143 1.46745H5.16071H5.31503L5.3842 1.3295L5.7409 0.618056L5.74091 0.618063L5.74211 0.615599C5.79584 0.505436 5.87939 0.41277 5.9831 0.348146C6.0868 0.283526 6.20651 0.249535 6.3285 0.250007H6.32946L10.6667 0.250007L10.6669 0.250007C10.7897 0.249918 10.9102 0.284191 11.0147 0.349028C11.1193 0.41387 11.2038 0.506731 11.2587 0.617235L11.2591 0.618056L11.6158 1.3295ZM10.6667 6.67036e-06H6.32946C6.16037 -0.000645065 5.99451 0.0464744 5.85089 0.135966C5.70726 0.225459 5.59169 0.353704 5.51741 0.506008L10.6667 6.67036e-06Z" fill="#FF3D3D"/>
</svg>
