<svg width="150" height="150" viewBox="0 0 150 150" fill="none" xmlns="http://www.w3.org/2000/svg">
<path d="M85.53 135.345H50.2577H36.1031V128.448H28.7965V121.121H21.9197V114.224H14.6131V100H7.73633V50H14.6131V35.7759H21.9197V28.8793H28.7965V21.5517H36.1031V14.6552H50.2865V7.32759H99.7134V14.6552H113.897V21.5517H121.203V28.8793H128.08V35.7759H135.387V50H142.264V78.4483H135.387V92.6724H128.08V100H121.203V106.897H113.897V114.224H107.02V121.121H99.7134V128.448H85.53V135.345Z" fill="#C9C9C9"/>
<path d="M107.02 78.4483H99.7134V71.5517H107.02V78.4483Z" fill="black"/>
<path d="M36.1032 78.0172H28.7966V71.1207H36.1032V63.7931H42.98V71.1207H50.2866V78.0172H57.1634V85.3448H64.47V78.0172H71.3468V71.1207H78.6534V63.7931H85.5302V56.8966H92.8367V49.569H99.7135V42.6724H113.897V49.569H121.204V56.8966H113.897V63.7931H107.02V71.1207H99.7135V78.0172H92.8367V85.3448H85.5302V92.2414H78.6534V99.569H71.3468V106.466H57.1634V99.569H50.2866V92.2414H42.98V85.3448H36.1032V78.0172Z" fill="#FFFCEE"/>
<path d="M107.02 71.5517V64.2241H113.897V71.5517H107.02Z" fill="black"/>
<path d="M57.1633 114.224V106.897H71.3467V114.224H57.1633Z" fill="black"/>
<path d="M78.6533 100H71.3467V106.897H78.6533V100Z" fill="black"/>
<path d="M85.5301 92.6724V100H78.6533V92.6724H85.5301Z" fill="black"/>
<path d="M92.8366 85.7759H85.53V92.6724H92.8366V85.7759Z" fill="black"/>
<path d="M99.7135 78.4483V85.7759H92.8367V78.4483H99.7135Z" fill="black"/>
<path d="M57.1634 106.897H50.2866V100H57.1634V106.897Z" fill="black"/>
<path d="M42.9801 92.6724H36.1033V85.7759H42.9801V92.6724Z" fill="black"/>
<path d="M50.2866 100H42.98V92.6724H50.2866V100Z" fill="black"/>
<path d="M36.1032 85.7759V78.4483H28.7966V85.7759H36.1032Z" fill="black"/>
<path d="M121.204 64.2241V57.3276H113.897V64.2241H121.204Z" fill="black"/>
<path d="M128.08 50H121.203V57.3276H128.08V50Z" fill="black"/>
<path d="M113.897 50V43.1035H121.204V50H113.897Z" fill="black"/>
<path d="M64.4699 78.4483H57.1633V85.7759H64.4699V78.4483Z" fill="black"/>
<path d="M64.47 78.4483V71.5517H71.3468V78.4483H64.47Z" fill="black"/>
<path d="M78.6533 64.2241H71.3467V71.5517H78.6533V64.2241Z" fill="black"/>
<path d="M85.5301 57.3276H78.6533V64.2241H85.5301V57.3276Z" fill="black"/>
<path d="M92.8366 50H85.53V57.3276H92.8366V50Z" fill="black"/>
<path d="M99.7135 43.1035H92.8367V50H99.7135V43.1035Z" fill="black"/>
<path d="M113.897 35.3448H99.7134V42.6724H113.897V35.3448Z" fill="black"/>
<path d="M50.2866 78.4483V71.5517H57.1634V78.4483H50.2866Z" fill="black"/>
<path d="M50.2866 142.672V135.345H85.5302V128.448H99.7136V121.121H107.02V114.224H113.897V106.897H121.204V100H128.08V92.6724H135.387V78.4483H142.264V100H135.387V114.224H128.08V121.121H121.204V128.448H113.897V135.345H99.7136V142.672H50.2866Z" fill="#A0A0A0"/>
<path d="M113.897 7.32759H99.7134V14.6552H113.897V7.32759Z" fill="black"/>
<path d="M99.7136 7.32759V0.431038H50.2866V7.32759H99.7136Z" fill="black"/>
<path d="M50.2867 7.32759H36.1033V14.6552H50.2867V7.32759Z" fill="black"/>
<path d="M28.7966 21.5517V14.6552H36.1032V21.5517H28.7966Z" fill="black"/>
<path d="M21.9197 28.8793V21.5517H28.7965V28.8793H21.9197Z" fill="black"/>
<path d="M21.9199 28.8793H14.6133V35.7759H21.9199V28.8793Z" fill="black"/>
<path d="M7.73633 50V35.7759H14.6131V50H7.73633Z" fill="black"/>
<path d="M135.387 35.7759H142.264V50H135.387V35.7759Z" fill="black"/>
<path d="M135.387 28.8793H128.08V35.7759H135.387V28.8793Z" fill="black"/>
<path d="M128.08 21.5517H121.203V28.8793H128.08V21.5517Z" fill="black"/>
<path d="M121.204 14.6552H113.897V21.5517H121.204V14.6552Z" fill="black"/>
<path d="M21.9199 114.224H14.6133V121.121H21.9199V114.224Z" fill="black"/>
<path d="M14.6131 100H7.73633V114.224H14.6131V100Z" fill="black"/>
<path d="M7.73628 100H0.429688V50H7.73628V100Z" fill="black"/>
<path d="M28.7965 121.121H21.9197V128.448H28.7965V121.121Z" fill="black"/>
<path d="M36.1032 135.345V128.448H28.7966V135.345H36.1032Z" fill="black"/>
<path d="M50.2867 142.672H36.1033V135.345H50.2867V142.672Z" fill="black"/>
<path d="M99.7136 149.569H50.2866V142.672H99.7136V149.569Z" fill="black"/>
<path d="M99.7134 142.672V135.345H113.897V142.672H99.7134Z" fill="black"/>
<path d="M121.204 128.448H113.897V135.345H121.204V128.448Z" fill="black"/>
<path d="M128.08 121.121H121.203V128.448H128.08V121.121Z" fill="black"/>
<path d="M135.387 114.224H128.08V121.121H135.387V114.224Z" fill="black"/>
<path d="M142.264 114.224H135.387V100H142.264V114.224Z" fill="black"/>
<path d="M142.264 100H149.57V50H142.264V100Z" fill="black"/>
<path d="M21.9197 71.5517H28.7965V78.4483H21.9197V71.5517Z" fill="black"/>
<path d="M36.1032 64.2241H28.7966V71.5517H36.1032V64.2241Z" fill="black"/>
<path d="M36.1033 64.2241V57.3276H42.9801V64.2241H36.1033Z" fill="black"/>
<path d="M42.98 71.5517V64.2241H50.2866V71.5517H42.98Z" fill="black"/>
</svg>
